<?xml version="1.0" encoding="UTF-8"?>
<svg id="Layer_2" data-name="Layer 2" xmlns="http://www.w3.org/2000/svg" viewBox="0 0 551.54 240.32">
  <defs>
    <style>
      .cls-1 {
        fill: #231f20;
      }
    </style>
  </defs>
  <g id="Layer_1-2" data-name="Layer 1">
    <g>
      <path class="cls-1" d="M204.89,59h-62.21v12.02h-12.02v98.28h12.02v12.02h74.23v-38.16h-12.02v-9.93h12.02v-26.14h-12.02v-9.93h12.02v-26.14h-12.02v-12.02Zm-60.11,14.11h46v9.93h-36.07v26.14h36.07v9.93h-36.07v26.14h36.07v9.93h-46V73.11Z"/>
      <path class="cls-1" d="M539.52,0H12.29V12.02H.27v26.14H12.29v12.02H227.32v119.12h12.02v12.02h38.16V50.18h274.05V12.02h-12.02V0ZM14.38,14.11h511.02v9.93H251.36V155.18h-9.93V24.05H14.38V14.11Z"/>
      <path class="cls-1" d="M432.68,59h-26.14v12.02h-12.02v98.28h12.02v12.02h38.16V71.02h-12.02v-12.02Zm-24.05,14.11h9.93v82.07h-9.93V73.11Z"/>
      <path class="cls-1" d="M551.34,109.18v-38.16h-12.02v-12.02h-62.21v12.02h-12.02v12.02h-12.02v38.16h12.02v21.95h-12.02v26.14h12.02v12.02h74.23v-12.02h12.02v-50.18h-12.02v-9.93h12.02Zm-36.07,12.02h9.93v21.95h-9.93v-21.95Zm-36.07-12.02h33.98v9.93h-33.98v-9.93Zm-12.02,36.07h46v9.93h-46v-9.93Zm12.02-72.14h46v9.93h-46v-9.93Zm-12.02,12.02h9.93v21.95h-9.93v-21.95Z"/>
      <path d="M265.57,201.16v-12.03h-28.23l.02,.02H122.32V71.02h-12.02v-12.02h-26.14v12.02h-12.02v12.03h-21.96v-12.03h-12.02v-12.02H12.02v12.02H0V227.3H12.02v12.02H50.18v-94.07h21.96v82.05h12.02v12.02h193.43v-38.16h-12.02ZM36.07,95.07h-12.02v118.12H14.11V73.12h9.94v12.02h12.02v9.93Zm12.02,12.02h-9.93v-9.93h9.93v9.93Zm12.03,12.03h-9.94v-9.94h9.94v9.94Zm12.02-12.03h-9.93v-9.93h9.93v9.93Zm179.32,106.09H86.25s0-118.11,0-118.11h-12.02v-9.93h12.02v-12.02h9.93V203.26H251.46v9.92Z"/>
      <path class="cls-1" d="M539.43,202.16v-12.03h-38.23l.02,.02h-115.04V119.12h-12.03v-9.94h12.03v-26.13h-12.03v-12.03h-12.02v-12.02h-62.2v12.02h-12.03V228.3h12.03v12.02h38.16v-12.02h9.93v12.02h203.43v-38.16h-12.02Zm-189.32-117.02h9.93v21.95h-9.93v-21.95Zm-2.09-2.09h-36.07v26.13h36.07v9.94h-36.07v95.07h-9.93V73.12h46v9.93Zm177.3,131.13h5.7s-180.91,0-180.91,0V121.21h9.93v83.05h16.14s149.14,.01,149.14,.01v9.91Z"/>
    </g>
  </g>
</svg>