<?xml version="1.0" encoding="UTF-8"?>
<svg id="Layer_2" data-name="Layer 2" xmlns="http://www.w3.org/2000/svg" viewBox="0 0 596.49 256.27">
  <defs>
    <style>
      .cls-1 {
        fill: #231f20;
      }
    </style>
  </defs>
  <g id="Layer_1-2" data-name="Layer 1">
    <g>
      <path class="cls-1" d="M205.6,72.22h-56.87v10.99h-10.99v89.85h10.99v10.99h67.86v-34.89h-10.99v-9.08h10.99v-23.9h-10.99v-9.08h10.99v-23.9h-10.99v-10.99Zm-54.96,12.9h42.05v9.08h-32.98v23.89h32.98v9.08h-32.98v23.89h32.98v9.08h-42.05V85.13Z"/>
      <path class="cls-1" d="M584.48,0H10.99V10.99H0v23.9H10.99v10.99H244.39V174.34h10.99v10.99h34.89V45.88h305.2V10.99h-10.99V0ZM12.9,12.9H571.57v9.08H266.37V161.44h-9.08V21.98H12.9V12.9Z"/>
      <path class="cls-1" d="M468.71,72.22h-23.89v10.99h-10.99v89.85h10.99v10.99h34.89V83.21h-10.99v-10.99Zm-21.98,12.9h9.08v75.03h-9.08V85.13Z"/>
      <path class="cls-1" d="M595.47,118.1v-34.89h-10.99v-10.99h-56.87v10.99h-10.99v10.99h-10.99v34.89h10.99v20.07h-10.99v23.9h10.99v10.99h67.86v-10.99h10.99v-45.88h-10.99v-9.08h10.99Zm-32.98,10.99h9.08v20.07h-9.08v-20.07Zm-32.98-10.99h31.06v9.08h-31.06v-9.08Zm-10.99,32.98h42.05v9.08h-42.05v-9.08Zm10.99-65.95h42.06v9.08h-42.06v-9.08Zm-10.99,10.99h9.08v20.07h-9.08v-20.07Z"/>
      <path d="M279.59,220.47v-11h-25.81l.02,.02H111.83V83.21h-10.99v-10.99h-23.9v10.99h-10.99v11h-20.08v-11h-10.99v-10.99H10.99v10.99H0V244.37H10.99v10.99H45.88v-104.28h20.08v93.29h10.99v10.99h213.64v-34.89h-10.99ZM32.98,105.2h-10.99v126.27H12.9V85.13h9.09v10.99h10.99v9.08Zm10.99,10.99h-9.08v-9.08h9.08v9.08Zm11,11h-9.09v-9.09h9.09v9.09Zm10.99-11h-9.08v-9.08h9.08v9.08Zm200.74,115.27H78.85s0-126.26,0-126.26h-10.99v-9.08h10.99v-10.99h9.08V222.39h178.76v9.07Z"/>
      <path class="cls-1" d="M585.5,221.38v-11h-34.95l.02,.02h-142.66V127.19h-11v-9.09h11v-23.89h-11v-11h-10.99v-10.99h-56.86v10.99h-11V245.28h11v10.99h34.89v-10.99h9.08v10.99h223.47v-34.89h-10.99Zm-210.57-125.26h9.08v20.07h-9.08v-20.07Zm-1.91-1.91h-32.98v23.89h32.98v9.09h-32.98v105.2h-9.08V85.13h42.05v9.08Zm199.58,138.16h5.21s-202.88,0-202.88,0v-103.29h9.08v94.21h14.76s173.84,0,173.84,0v9.06Z"/>
    </g>
  </g>
</svg>