{
    "asset" : {
        "generator" : "Khronos glTF Blender I/O v3.3.32",
        "version" : "2.0"
    },
    "scene" : 0,
    "scenes" : [
        {
            "name" : "Scene",
            "nodes" : [
                0,
                1
            ]
        }
    ],
    "nodes" : [
        {
            "mesh" : 0,
            "name" : "Border",
            "translation" : [
                4.9591569900512695,
                1.5,
                -3.6653120517730713
            ]
        },
        {
            "mesh" : 1,
            "name" : "Metris",
            "translation" : [
                8.192157745361328,
                1.4999998807907104,
                -6.128727912902832
            ]
        }
    ],
    "materials" : [
        {
            "doubleSided" : true,
            "name" : "Striped",
            "pbrMetallicRoughness" : {
                "metallicFactor" : 0,
                "roughnessFactor" : 0.5
            }
        },
        {
            "doubleSided" : true,
            "name" : "Blue",
            "pbrMetallicRoughness" : {
                "baseColorFactor" : [
                    0.046665091067552567,
                    0.25015830993652344,
                    0.4735316038131714,
                    1
                ],
                "metallicFactor" : 0,
                "roughnessFactor" : 0.5
            }
        }
    ],
    "meshes" : [
        {
            "name" : "Mesh.018",
            "primitives" : [
                {
                    "attributes" : {
                        "POSITION" : 0,
                        "NORMAL" : 1
                    },
                    "indices" : 2,
                    "material" : 0
                }
            ]
        },
        {
            "name" : "Mesh.002",
            "primitives" : [
                {
                    "attributes" : {
                        "POSITION" : 3,
                        "NORMAL" : 4
                    },
                    "indices" : 5,
                    "material" : 1
                }
            ]
        }
    ],
    "accessors" : [
        {
            "bufferView" : 0,
            "componentType" : 5126,
            "count" : 839,
            "max" : [
                12.000741958618164,
                1.125000238418579,
                3.7903122901916504
            ],
            "min" : [
                -5.0841569900512695,
                -1.1250001192092896,
                -3.6908164024353027
            ],
            "type" : "VEC3"
        },
        {
            "bufferView" : 1,
            "componentType" : 5126,
            "count" : 839,
            "type" : "VEC3"
        },
        {
            "bufferView" : 2,
            "componentType" : 5123,
            "count" : 1344,
            "type" : "SCALAR"
        },
        {
            "bufferView" : 3,
            "componentType" : 5126,
            "count" : 1557,
            "max" : [
                8.642741203308105,
                1.5,
                6.128727912902832
            ],
            "min" : [
                -8.192157745361328,
                -1.5,
                -1.1024008989334106
            ],
            "type" : "VEC3"
        },
        {
            "bufferView" : 4,
            "componentType" : 5126,
            "count" : 1557,
            "type" : "VEC3"
        },
        {
            "bufferView" : 5,
            "componentType" : 5123,
            "count" : 2664,
            "type" : "SCALAR"
        }
    ],
    "bufferViews" : [
        {
            "buffer" : 0,
            "byteLength" : 10068,
            "byteOffset" : 0,
            "target" : 34962
        },
        {
            "buffer" : 0,
            "byteLength" : 10068,
            "byteOffset" : 10068,
            "target" : 34962
        },
        {
            "buffer" : 0,
            "byteLength" : 2688,
            "byteOffset" : 20136,
            "target" : 34963
        },
        {
            "buffer" : 0,
            "byteLength" : 18684,
            "byteOffset" : 22824,
            "target" : 34962
        },
        {
            "buffer" : 0,
            "byteLength" : 18684,
            "byteOffset" : 41508,
            "target" : 34962
        },
        {
            "buffer" : 0,
            "byteLength" : 5328,
            "byteOffset" : 60192,
            "target" : 34963
        }
    ],
    "buffers" : [
        {
            "byteLength" : 65520,
            "uri" : "data:application/octet-stream;base64,"
        }
    ]
}
